<svg xmlns="http://www.w3.org/2000/svg" width="285.163" height="41.313" viewBox="0 0 285.163 41.313"><g transform="translate(51.449 12.705)"><path d="M408.285,109.657h1.952v12.5h4.709v1.952h-6.66Z" transform="translate(-408.285 -109.01)"/><path d="M504.061,109.657h1.952v14.455h-1.952Z" transform="translate(-491.627 -109.01)"/><path d="M571.695,109.657h8.011v1.974h-6.059v3.608h6.059v1.952h-6.036v6.921h-1.974Z" transform="translate(-550.48 -109.01)"/><path d="M673.851,109.657h8.839v1.974h-3.449v12.481h-1.952V111.631h-3.438Z" transform="translate(-639.374 -109.01)"/><path d="M787.194,109.657h8.01v1.974h-6.059v3.608H795.2v1.952h-6.059v4.97H795.2v1.952h-8.01Z" transform="translate(-738.002 -109.01)"/><path d="M896.342,109.657h3.506q4.164,0,6.2,2.2a7.2,7.2,0,0,1,2.031,5.026,7.07,7.07,0,0,1-2.1,5.038,8.066,8.066,0,0,1-6.1,2.19h-3.529Zm1.974,1.929v10.575h.114a20.413,20.413,0,0,0,3.313-.2,5.5,5.5,0,0,0,2.11-.868,4.843,4.843,0,0,0,1.589-1.776,5.093,5.093,0,0,0,.59-2.434,5.156,5.156,0,0,0-.942-3.018,4.653,4.653,0,0,0-2.252-1.815,10.82,10.82,0,0,0-3.523-.465Z" transform="translate(-832.98 -109.01)"/><path d="M1112.134,106.23l-2,2.19a5.477,5.477,0,0,0-2.269-.93,1.229,1.229,0,0,0-.919.4,1.337,1.337,0,0,0-.386.958q0,1.1,2,1.906a13.893,13.893,0,0,1,2.213,1.129,4.042,4.042,0,0,1,1.254,1.4,3.889,3.889,0,0,1,.5,1.94,4.387,4.387,0,0,1-1.549,3.336,5.238,5.238,0,0,1-3.659,1.418,6.646,6.646,0,0,1-4.573-2.178l2.11-2.462a3.925,3.925,0,0,0,2.655,1.464,1.6,1.6,0,0,0,1.112-.515,1.506,1.506,0,0,0,.533-1.081q0-1.166-2.462-2.055a8.088,8.088,0,0,1-2-.961,3.427,3.427,0,0,1-.993-1.3,4.08,4.08,0,0,1-.4-1.753,4.256,4.256,0,0,1,1.294-3.222,4.689,4.689,0,0,1,3.381-1.237A5.883,5.883,0,0,1,1112.134,106.23Z" transform="translate(-1012.592 -104.675)"/><path d="M1221.425,112.627a7.327,7.327,0,0,1,2.184-5.452,7.133,7.133,0,0,1,5.18-2.15,7.728,7.728,0,0,1,5.5,13.071,7.283,7.283,0,0,1-5.4,2.167,7.172,7.172,0,0,1-5.361-2.156A7.52,7.52,0,0,1,1221.425,112.627Zm7.511-4.629a3.7,3.7,0,0,0-3.018,1.293,5.057,5.057,0,0,0-1.146,3.427,4.747,4.747,0,0,0,1.169,3.29,3.79,3.79,0,0,0,2.95,1.3,3.862,3.862,0,0,0,3.024-1.288,4.906,4.906,0,0,0,1.152-3.4,4.809,4.809,0,0,0-1.129-3.336A3.936,3.936,0,0,0,1228.936,108Z" transform="translate(-1115.859 -104.98)"/><path d="M1387.555,106.248h3.188v11.687h4.391v3.211h-7.579Z" transform="translate(-1260.421 -106.044)"/><path d="M1492.77,106.248h3.166v9.111a2.914,2.914,0,0,0,.7,2.042,2.384,2.384,0,0,0,1.849.772,2.659,2.659,0,0,0,2.042-.777,3.1,3.1,0,0,0,.726-2.2v-8.952h3.154v9.644a6.073,6.073,0,0,1-.658,2.638,4.56,4.56,0,0,1-2.025,2.093,6.416,6.416,0,0,1-3.058.726,5.37,5.37,0,0,1-5.9-5.3Z" transform="translate(-1351.977 -106.044)"/><path d="M1627.875,106.248h10.019v3.166h-3.415v11.732h-3.211V109.414h-3.393Z" transform="translate(-1469.541 -106.044)"/><path d="M1749.608,106.248h3.211v14.9h-3.211Z" transform="translate(-1575.47 -106.044)"/><path d="M1822.923,112.627a7.327,7.327,0,0,1,2.184-5.452,7.133,7.133,0,0,1,5.18-2.15,7.728,7.728,0,0,1,5.5,13.071,7.283,7.283,0,0,1-5.4,2.167,7.172,7.172,0,0,1-5.361-2.156A7.521,7.521,0,0,1,1822.923,112.627Zm7.511-4.629a3.7,3.7,0,0,0-3.018,1.293,5.057,5.057,0,0,0-1.146,3.427,4.747,4.747,0,0,0,1.169,3.29,3.79,3.79,0,0,0,2.95,1.3,3.863,3.863,0,0,0,3.024-1.288,4.906,4.906,0,0,0,1.152-3.4,4.81,4.81,0,0,0-1.129-3.336A3.937,3.937,0,0,0,1830.434,108Z" transform="translate(-1639.267 -104.98)"/><path d="M1997.314,106.248h3.143v14.9h-3.128l-6.812-9.644v9.644h-3.211v-14.9h3.175l6.833,9.576Z" transform="translate(-1782.31 -106.044)"/><path d="M2142.544,106.23l-2,2.19a5.478,5.478,0,0,0-2.269-.93,1.229,1.229,0,0,0-.919.4,1.337,1.337,0,0,0-.386.958q0,1.1,2,1.906a13.868,13.868,0,0,1,2.213,1.129,4.043,4.043,0,0,1,1.254,1.4,3.889,3.889,0,0,1,.5,1.94,4.387,4.387,0,0,1-1.549,3.336,5.238,5.238,0,0,1-3.659,1.418,6.646,6.646,0,0,1-4.573-2.178l2.111-2.462a3.924,3.924,0,0,0,2.655,1.464,1.6,1.6,0,0,0,1.112-.515,1.5,1.5,0,0,0,.533-1.081q0-1.166-2.462-2.055a8.092,8.092,0,0,1-2-.961,3.428,3.428,0,0,1-.993-1.3,4.082,4.082,0,0,1-.4-1.753,4.257,4.257,0,0,1,1.293-3.222,4.69,4.69,0,0,1,3.381-1.237A5.883,5.883,0,0,1,2142.544,106.23Z" transform="translate(-1909.228 -104.675)"/></g><path d="M11.988,27.472,32.644,6.816,53.3,27.472,32.644,48.129ZM32.644,45.79,50.962,27.472l-3.7-3.7L32.644,38.385,18.029,23.77l-3.7,3.7Zm0-9.744L46.09,22.6l-8.574-8.574L27.772,23.77,26.6,22.6l9.744-9.744-3.7-3.7L19.2,22.6l8.574,8.574,9.744-9.744L38.685,22.6l-9.744,9.744Z" transform="translate(-11.988 -6.816)"/></svg>