<svg id="Group_535" data-name="Group 535" xmlns="http://www.w3.org/2000/svg" xmlns:xlink="http://www.w3.org/1999/xlink" width="78.435" height="78.799" viewBox="0 0 78.435 78.799">
  <defs>
    <linearGradient id="linear-gradient" x1="0.14" y1="-0.071" x2="0.514" y2="0.837" gradientUnits="objectBoundingBox">
      <stop offset="0" stop-color="#fff"/>
      <stop offset="1"/>
    </linearGradient>
    <linearGradient id="linear-gradient-2" x1="0.814" y1="0.053" x2="0.22" y2="0.887" xlink:href="#linear-gradient"/>
    <linearGradient id="linear-gradient-3" x1="2.143" y1="-0.583" x2="0.282" y2="0.796" xlink:href="#linear-gradient"/>
    <linearGradient id="linear-gradient-4" x1="1.835" y1="0.056" x2="-0.271" y2="0.91" xlink:href="#linear-gradient"/>
    <linearGradient id="linear-gradient-5" x1="0.438" y1="-0.013" x2="0.546" y2="1.485" gradientUnits="objectBoundingBox">
      <stop offset="0" stop-color="#fff"/>
      <stop offset="0.224" stop-color="#c6c6c6"/>
      <stop offset="1"/>
    </linearGradient>
    <linearGradient id="linear-gradient-6" x1="0.85" y1="0.119" x2="0.125" y2="1.472" xlink:href="#linear-gradient"/>
    <linearGradient id="linear-gradient-7" x1="0.955" y1="-0.536" x2="-0.727" y2="4.057" xlink:href="#linear-gradient"/>
    <linearGradient id="linear-gradient-8" x1="0.163" y1="-0.567" x2="0.573" y2="0.562" xlink:href="#linear-gradient"/>
    <linearGradient id="linear-gradient-9" x1="0.639" y1="0.371" x2="-0.017" y2="1.267" xlink:href="#linear-gradient"/>
    <linearGradient id="linear-gradient-10" x1="0.587" y1="0.239" x2="-0.211" y2="1.409" xlink:href="#linear-gradient"/>
    <linearGradient id="linear-gradient-11" x1="0.686" y1="0.282" x2="-0.243" y2="1.515" xlink:href="#linear-gradient"/>
    <linearGradient id="linear-gradient-12" x1="0.884" y1="0.39" x2="-4.553" y2="2.702" xlink:href="#linear-gradient"/>
    <linearGradient id="linear-gradient-13" x1="1.383" y1="0.03" x2="-4.055" y2="2.342" xlink:href="#linear-gradient"/>
  </defs>
  <g id="Group_530" data-name="Group 530">
    <path id="Path_1512" data-name="Path 1512" d="M178.3,388.691a75.662,75.662,0,0,1,39.074,10.8c.093-1.1.144-2.222.144-3.352a39.217,39.217,0,1,0-78.435,0c0,1.13.051,2.249.144,3.354A75.646,75.646,0,0,1,178.3,388.691Z" transform="translate(-139.08 -356.921)" fill="url(#linear-gradient)"/>
    <g id="Group_529" data-name="Group 529" transform="translate(49.616 17.018)">
      <path id="Path_1513" data-name="Path 1513" d="M215.147,391.08h-1.114v-4.168l-2.219-1.226v3.78h-1.047v-2.248H209.1v2.248h-.985a1.556,1.556,0,0,0-1.464-1.453l-.184-.873h-.221l-.184.873a1.49,1.49,0,0,0-1.463,1.453h-1.123v-3.623h-1.109v-4.524h-2.821v10.392a75.683,75.683,0,0,1,17.823,7.781c.093-1.1.144-2.222.144-3.352,0-.19-.012-.378-.015-.567l-2.353-1.685Z" transform="translate(-188.696 -373.939)" fill="url(#linear-gradient-2)"/>
      <g id="Group_528" data-name="Group 528">
        <path id="Path_1514" data-name="Path 1514" d="M194.427,390.414v-11l-2.628,1.684v4.659h-.783v-3.4H188.7V389.4Q191.6,389.8,194.427,390.414Z" transform="translate(-188.696 -373.939)" fill="url(#linear-gradient-3)"/>
        <path id="Path_1515" data-name="Path 1515" d="M198.485,384.7v-7.551h-1.127l-.48-3.215-.481,3.215h-1.126V384.7l-.833,5.712q2.566.555,5.066,1.282Z" transform="translate(-188.696 -373.939)" fill="url(#linear-gradient-4)"/>
      </g>
    </g>
    <path id="Path_1516" data-name="Path 1516" d="M180.231,371.783c-1.934,6.545-6.052,11.115-9.721,11.293-5.56.269-10.8-5.327-13.414-17.831-2.9,12.563-9.992,22.253-17.716,26.114a39.7,39.7,0,0,0-.3,4.781c0,1.13.051,2.249.144,3.354a76.091,76.091,0,0,1,53.794-9.367l.068,0C188.2,388.916,181.434,379.5,180.231,371.783Z" transform="translate(-139.08 -356.921)" fill="url(#linear-gradient-5)"/>
    <path id="Path_1517" data-name="Path 1517" d="M183.719,371.65c-1.83,6.265-5.463,11.051-9.133,11.228-5.559.271-8.639-5.317-11.529-17.859-3.259,14.111-11.716,23.53-23.913,28.935-.04.723-.064,1.452-.064,2.186,0,1.13.051,2.249.144,3.354a76.143,76.143,0,0,1,55.257-9.068l.044,0C190.055,388.613,185.291,379.41,183.719,371.65Z" transform="translate(-139.08 -356.921)" fill="url(#linear-gradient-6)"/>
    <path id="Path_1518" data-name="Path 1518" d="M183.693,388.9c.81.058,1.621.114,2.424.2.588.06,1.168.141,1.751.215.692.088,1.384.174,2.07.28.611.094,1.216.205,1.822.313.418.075.842.135,1.258.217l.068,0c-3.868-.96-8.9-7.055-11.43-13.379-1.93,3.594-4.489,6-7.07,6.128a6.738,6.738,0,0,1-2.218-.255,5.545,5.545,0,0,1-1.858.453c-3.987.193-7.8-2.649-10.61-8.872-4.3,9.127-11.426,15.614-20.749,19.746-.042.725-.071,1.454-.071,2.19,0,1.13.051,2.249.144,3.354a75.646,75.646,0,0,1,39.073-10.8c1.324,0,2.639.039,3.946.107C182.729,388.823,183.209,388.871,183.693,388.9Z" transform="translate(-139.08 -356.921)" fill="url(#linear-gradient-7)"/>
    <path id="Path_1519" data-name="Path 1519" d="M162.48,367.251h-4.915l-.469-2.006-.677,2.582V392.26c.427-.128.851-.262,1.281-.383V386.32h4.7v4.4c.425-.091.853-.172,1.281-.255v-22.9l-.621-2.551Zm-.083,17.956h-4.7v-4.874h4.7Zm0-5.985h-4.7v-4.874h4.7Zm0-5.986h-4.7v-4.873h4.7Z" transform="translate(-139.08 -356.921)" fill="#fff"/>
    <path id="Path_1520" data-name="Path 1520" d="M184.082,389.274V373.142l-.363-1.492-.338,1.3h-2.875l-.275-1.172-.4,1.509v15.785c.249.006.5.006.749.013v-3.44h2.748v3.569C183.583,389.236,183.832,389.255,184.082,389.274Zm-3.5-15.669h2.748v3.785h-2.748Zm0,4.436h2.748v3.278h-2.748Zm0,6.958v-3.03h2.748V385Z" transform="translate(-139.08 -356.921)" fill="#fff"/>
  </g>
  <g id="Group_534" data-name="Group 534" transform="translate(0.928 33.543)">
    <path id="Path_1521" data-name="Path 1521" d="M178.3,390.464a58.659,58.659,0,0,0-38.289,14.147,39.214,39.214,0,0,0,76.579,0A58.66,58.66,0,0,0,178.3,390.464Z" transform="translate(-140.008 -390.464)" fill="url(#linear-gradient-8)"/>
    <path id="Path_1522" data-name="Path 1522" d="M147.345,412.637H149.8v10.426a39.16,39.16,0,0,0,18.71,11.056V412.637h2.451l-11.806-7.723Z" transform="translate(-140.008 -390.464)" fill="url(#linear-gradient-9)"/>
    <g id="Group_531" data-name="Group 531" transform="translate(12.844 25.573)">
      <path id="Path_1523" data-name="Path 1523" d="M156.93,429.378a39.016,39.016,0,0,0,4.442,2.5V423.43H156.93Z" transform="translate(-152.852 -416.037)" fill="#fff"/>
      <rect id="Rectangle_510" data-name="Rectangle 510" width="4.056" height="4.055" transform="translate(8.52)" fill="#fff"/>
      <rect id="Rectangle_511" data-name="Rectangle 511" width="4.056" height="4.055" fill="#fff"/>
    </g>
    <path id="Path_1524" data-name="Path 1524" d="M206.8,423.065V412.637h2.451l-11.8-7.723-11.806,7.723h2.452v21.482A39.166,39.166,0,0,0,206.8,423.065Z" transform="translate(-140.008 -390.464)" fill="url(#linear-gradient-10)"/>
    <g id="Group_532" data-name="Group 532" transform="translate(51.159 25.573)">
      <path id="Path_1525" data-name="Path 1525" d="M195.223,431.878a39.015,39.015,0,0,0,4.442-2.5V423.43h-4.442Z" transform="translate(-191.167 -416.037)" fill="#fff"/>
      <rect id="Rectangle_512" data-name="Rectangle 512" width="4.056" height="4.055" transform="translate(8.519)" fill="#fff"/>
      <rect id="Rectangle_513" data-name="Rectangle 513" width="4.056" height="4.055" fill="#fff"/>
    </g>
    <path id="Path_1526" data-name="Path 1526" d="M162.071,403h3.369v30.191a39.247,39.247,0,0,0,25.716,0V403h3.369L178.3,392.387Z" transform="translate(-140.008 -390.464)" fill="url(#linear-gradient-11)"/>
    <path id="Path_1527" data-name="Path 1527" d="M191.156,409.027l-5.518,3.61h2.452v21.482c.82-.211,1.625-.456,2.423-.717.135-.045.272-.087.407-.132.079-.027.156-.061.236-.088Z" transform="translate(-140.008 -390.464)" fill="url(#linear-gradient-12)"/>
    <path id="Path_1528" data-name="Path 1528" d="M165.44,433.182c.079.027.155.06.234.088.136.045.274.087.41.132.8.262,1.6.506,2.422.717V412.637h2.451l-5.517-3.61Z" transform="translate(-140.008 -390.464)" fill="url(#linear-gradient-13)"/>
    <g id="Group_533" data-name="Group 533" transform="translate(30.638 15.548)">
      <path id="Path_1529" data-name="Path 1529" d="M175.476,435.61c.933.067,1.872.11,2.821.11s1.889-.043,2.823-.11v-9.987h-5.644Z" transform="translate(-170.646 -406.012)" fill="#fff"/>
      <rect id="Rectangle_514" data-name="Rectangle 514" width="4.83" height="4.83" transform="translate(10.474 9.637)" fill="#fff"/>
      <rect id="Rectangle_515" data-name="Rectangle 515" width="4.83" height="4.83" transform="translate(0 9.637)" fill="#fff"/>
      <rect id="Rectangle_516" data-name="Rectangle 516" width="4.83" height="4.83" transform="translate(10.474)" fill="#fff"/>
      <rect id="Rectangle_517" data-name="Rectangle 517" width="4.83" height="4.83" fill="#fff"/>
    </g>
  </g>
</svg>
