<svg id="icn-1" xmlns="http://www.w3.org/2000/svg" width="128.632" height="128.634" viewBox="0 0 128.632 128.634">
  <g id="icn-1-2" data-name="icn-1">
    <path id="Path_2074" data-name="Path 2074" d="M109.409,64.434A45.267,45.267,0,1,0,64.142,109.7v-3.67a41.6,41.6,0,1,1,41.6-41.6Z" transform="translate(-0.645 -0.937)" fill="#2d6df2"/>
    <path id="Path_2075" data-name="Path 2075" d="M122.676,109l-2.345-.117a63.522,63.522,0,1,0-11.739,11.739l.117,2.345,12.415,12.416,1.889-12.077,12.077-1.891ZM69.955,130.074a59.856,59.856,0,1,1,45.853-21.417l-.317-.016-3.033-3.032a55.35,55.35,0,1,0-7.144,7.141l3.033,3.035.016.316A59.791,59.791,0,0,1,69.955,130.074Zm2.324-48.76a11.312,11.312,0,1,1,8.992-11.067,11.482,11.482,0,0,1-.248,2.324L69.08,69.37ZM69.955,55.26a14.986,14.986,0,1,0,3.274,29.6l4.153,15.506,7.772-7.774,2.939,2.939a31.2,31.2,0,1,1,7.142-7.144L92.3,85.448l7.775-7.772L84.567,73.521A14.937,14.937,0,0,0,69.955,55.26Zm34.807,14.987a34.884,34.884,0,1,0-14.05,27.9l12,12a51.622,51.622,0,1,1,7.144-7.141l-12-12A34.866,34.866,0,0,0,104.762,70.247ZM119.8,120.1l-1.188,7.586-6.31-6.312-.361-7.184L85.156,87.4l-5.871,5.873L74.271,74.562l18.711,5.014L87.109,85.45l26.786,26.788,7.185.361,6.312,6.31Z" transform="translate(-6.458 -6.75)" fill="#2d6df2"/>
  </g>
</svg>
